<?xml version="1.0" standalone="no"?>
<!DOCTYPE svg PUBLIC "-//W3C//DTD SVG 20010904//EN"
 "http://www.w3.org/TR/2001/REC-SVG-20010904/DTD/svg10.dtd">
<svg version="1.0" xmlns="http://www.w3.org/2000/svg"
 width="500.000000pt" height="500.000000pt" viewBox="0 0 500.000000 500.000000"
 preserveAspectRatio="xMidYMid meet">

<g transform="translate(0.000000,500.000000) scale(0.100000,-0.100000)"
fill="#000000" stroke="none">
<path d="M2220 3055 c-13 -14 -101 -139 -195 -277 l-172 -253 -129 -5 c-135
-6 -154 -11 -154 -37 0 -11 5 -13 18 -7 22 11 232 18 232 8 0 -18 -151 -205
-227 -282 -80 -80 -95 -102 -73 -102 25 0 190 184 299 333 l42 57 146 0 146 0
-7 -41 c-6 -36 -68 -230 -91 -283 -6 -14 -5 -18 6 -14 22 7 50 72 89 208 l36
125 43 6 c39 5 42 4 37 -15 -42 -147 -116 -453 -118 -484 -4 -60 14 -53 35 14
85 272 110 343 147 417 61 126 141 189 180 142 14 -17 7 -69 -11 -92 -6 -7
-24 -13 -40 -13 -54 0 -129 -44 -129 -76 0 -39 94 -21 159 31 42 34 47 35 125
35 45 0 162 -12 261 -26 197 -28 485 -39 492 -18 2 8 -47 13 -159 17 -90 4
-242 18 -338 31 -96 14 -210 26 -254 26 l-78 0 6 30 c12 62 -32 110 -89 96
-45 -11 -103 -74 -145 -158 -44 -88 -47 -89 -25 -8 21 77 20 104 -2 95 -36
-16 -83 -18 -83 -4 0 8 14 80 30 161 42 206 56 331 42 363 -14 31 -23 31 -52
0z m21 -158 c-6 -40 -25 -141 -43 -224 l-31 -153 -138 0 c-77 0 -139 2 -139 5
0 8 263 396 313 463 l42 56 3 -38 c2 -21 -2 -70 -7 -109z m194 -487 c-31 -20
-65 -27 -65 -12 0 13 41 31 70 31 25 1 25 1 -5 -19z"/>
<path d="M3457 2404 c-11 -11 3 -24 24 -24 12 0 19 5 17 13 -5 14 -31 21 -41
11z"/>
<path d="M1541 1728 c-5 -13 -27 -69 -50 -126 -46 -116 -45 -112 -28 -112 7 0
19 19 27 43 15 42 16 42 68 45 l52 3 20 -45 c11 -26 24 -46 30 -46 5 0 10 3
10 8 -1 22 -97 246 -107 249 -7 3 -17 -6 -22 -19z m42 -67 c9 -27 17 -51 17
-55 0 -3 -18 -6 -41 -6 -31 0 -40 3 -36 14 3 8 11 32 18 55 7 23 15 41 18 41
4 0 14 -22 24 -49z"/>
<path d="M1810 1740 c0 -5 18 -10 40 -10 l40 0 0 -120 c0 -100 3 -120 15 -120
13 0 15 20 15 120 l0 120 40 0 c22 0 40 5 40 10 0 6 -38 10 -95 10 -57 0 -95
-4 -95 -10z"/>
<path d="M2170 1620 l0 -130 70 0 c56 0 70 3 70 15 0 12 -13 15 -61 15 l-60 0
3 48 3 47 53 3 c69 4 67 22 -4 22 l-55 0 3 43 3 42 58 3 c81 4 71 22 -13 22
l-70 0 0 -130z"/>
<path d="M2500 1620 l0 -130 71 0 c52 0 70 3 67 13 -3 7 -27 13 -61 15 l-57 3
0 114 c0 70 -4 115 -10 115 -6 0 -10 -50 -10 -130z"/>
<path d="M2810 1620 c0 -109 2 -130 15 -130 13 0 15 21 15 130 0 109 -2 130
-15 130 -13 0 -15 -21 -15 -130z"/>
<path d="M3040 1620 l0 -130 70 0 c56 0 70 3 70 15 0 12 -13 15 -61 15 l-60 0
3 48 3 47 53 3 c69 4 67 22 -4 22 l-55 0 3 43 3 42 58 3 c81 4 71 22 -13 22
l-70 0 0 -130z"/>
<path d="M3370 1621 c0 -81 4 -131 10 -131 6 0 10 25 10 55 0 54 0 55 30 55
26 0 34 -8 61 -55 17 -30 37 -55 45 -55 19 0 18 3 -17 60 l-31 50 26 31 c31
36 33 59 7 90 -14 18 -31 23 -80 27 l-61 4 0 -131z m108 93 c48 -33 13 -94
-55 -94 l-33 0 0 55 0 55 33 0 c18 0 43 -7 55 -16z"/>
<path d="M1252 1268 c0 -46 3 -69 5 -51 4 27 10 33 40 40 70 16 56 93 -17 93
l-30 0 2 -82z m53 62 c40 -15 31 -54 -12 -58 -30 -3 -33 -1 -33 26 0 25 7 42
16 42 1 0 15 -5 29 -10z"/>
<path d="M1571 1329 c-5 -13 -19 -48 -30 -78 -22 -55 -22 -85 0 -37 10 21 19
26 46 26 27 0 35 -5 44 -26 5 -15 12 -24 15 -22 5 6 -44 137 -57 152 -5 5 -12
-1 -18 -15z m34 -46 c5 -20 3 -23 -19 -23 -30 0 -30 0 -14 35 12 27 22 24 33
-12z"/>
<path d="M1815 1340 c3 -5 15 -10 26 -10 17 0 19 -7 19 -70 0 -40 4 -70 10
-70 6 0 10 30 10 70 0 68 1 70 25 70 14 0 25 5 25 10 0 6 -27 10 -61 10 -37 0
-58 -4 -54 -10z"/>
<path d="M2110 1270 c0 -47 4 -80 10 -80 6 0 10 33 10 80 0 47 -4 80 -10 80
-6 0 -10 -33 -10 -80z"/>
<path d="M2335 1334 c-9 -9 -14 -23 -11 -31 3 -8 6 -16 6 -19 0 -2 16 -10 35
-18 59 -25 35 -80 -26 -61 -15 5 -19 4 -15 -4 15 -24 96 -3 96 25 0 18 -24 43
-50 52 -20 7 -30 18 -30 31 0 22 28 35 55 25 13 -5 16 -4 11 4 -10 17 -52 15
-71 -4z"/>
<path d="M2610 1335 c-19 -23 -7 -49 33 -70 20 -11 37 -25 37 -31 0 -21 -29
-36 -55 -30 -14 4 -25 2 -25 -4 0 -14 63 -13 78 2 24 24 14 57 -23 72 -56 24
-37 81 20 60 13 -5 16 -4 11 4 -10 17 -61 15 -76 -3z"/>
<path d="M2890 1270 l0 -80 43 1 42 2 -35 6 c-30 5 -35 10 -38 38 -3 30 -1 32
35 36 l38 4 -37 1 c-33 2 -38 5 -38 27 0 22 4 25 35 25 19 0 35 5 35 10 0 6
-18 10 -40 10 l-40 0 0 -80z"/>
<path d="M3160 1270 c0 -47 4 -80 10 -80 6 0 10 16 10 35 0 27 4 35 18 35 10
0 26 -15 36 -35 11 -19 23 -35 28 -35 5 0 0 16 -13 36 -20 33 -21 37 -6 46 23
12 21 55 -2 68 -11 5 -33 10 -50 10 l-31 0 0 -80z m83 48 c8 -22 -13 -48 -38
-48 -21 0 -25 5 -25 30 0 26 3 30 29 30 16 0 31 -6 34 -12z"/>
<path d="M3463 1270 c0 -47 2 -66 4 -42 2 23 2 61 0 85 -2 23 -4 4 -4 -43z"/>
<path d="M3670 1270 l0 -80 48 2 c43 1 44 2 10 5 -36 4 -38 6 -38 38 0 31 3
34 33 38 l32 4 -32 1 c-28 2 -33 6 -33 27 0 22 4 25 35 25 19 0 35 5 35 10 0
6 -20 10 -45 10 l-45 0 0 -80z"/>
</g>
</svg>
